<svg enable-background="new 0 0 76.00 76.00" height="76" viewBox="0 0 76 76" width="76" xmlns="http://www.w3.org/2000/svg"><path d="m38.4282 26.5603c-.5739 0-1.339 1.9129-.7652 3.6345-1.5303 0-1.1477-3.6345-1.1477-3.6345-.3826.1913-1.5303-.1913-1.5303-.1913.9565-.1913 1.3194-.7465.9565-1.1477-3.6345-4.017-5.7089 3.5748-4.5909 4.7822 4.7821 5.1647 3.0606 6.695 3.0606 6.695 1.1477 3.0606 7.8427 9.5643 7.8427 9.5643 3.2519-5.356.1913-8.9904-.5739-9.5643-.7651-.5739-.9564 1.1477-.9564 1.1477-.5738-1.5303-2.678-1.1477-2.678-1.1477 1.1477-2.8693 4.3996-2.2954 4.3996-2.2954s-.1913.3825-.7652.3825c-.5738 0 1.9129.9565 2.4868 1.339.5738.3826.1913-.7651.1913-.7651 1.5302 1.339 1.339 3.2519 1.7215 4.2083.3826.9564.7652-.1913.7652-.1913.5739 1.9129-.1913 3.8257 0 4.5909.1913.7651.9564.1913.9564.1913-.3825 3.6344-1.7216 5.5473-1.7216 5.5473 8.6079 7.2689 14.9204 5.1647 14.9204 5.1647-1.1477.9564-4.9735 3.6345-7.0776 2.4867-2.1042-1.1477-4.9735.5739-4.9735.5739-1.1477-1.7216-4.9734-3.4432-7.4601-2.1042-13.7086 7.3816-19.7025-4.3995-20.4677-5.356-.7651-.9564-1.339 1.339-1.339 1.339-3.4431-3.2518-.3826-7.4601-.5739-8.6079-.1912-1.1477-1.9128.9565-1.9128.9565-1.339-3.4432 4.3996-7.8428 4.3996-8.7992s-1.9129 0-1.9129 0c1.9129-3.6344 7.8428-3.4432 7.8428-3.4432s-.3826-2.1041-.9565-2.8693c-.5738-.7651-.9564.5739-.9564.5739-.7652-2.2954.5738-3.2519 1.7216-5.1647.5738-1.1477-1.339-.7652-1.339-.7652 1.7215-2.4867 3.8257-1.3868 4.9734-2.7258.5738-.5739-.7652-1.0521-.7652-1.0521 1.5304-.8129 3.0606.9086 4.3996-.1434 1.1748-.9231-2.2954-2.0085-2.2954-2.0085 6.8863-.1913 5.356 2.8692 9.1818 5.7385 0 .7652.1912 2.1042.1912 2.1042 2.2955 4.2083-.3825 4.3996-.3825 4.3996 1.1477-1.5303-2.2955-3.4432-2.8693-3.4432zm-8.7992 12.2424c-13.0075 4.9734.3826 17.9809 8.4166 12.8162 0-1.1478-2.678-1.3391-2.678-1.3391-.3826-4.9734-4.5909-5.1647-4.5909-5.1647.7652-2.8693-.9934-6.6167-1.1477-6.3124z" stroke-linejoin="round"/></svg>